<?xml version="1.0" encoding="utf-8"?>
<!-- Generator: Adobe Illustrator 17.0.0, SVG Export Plug-In . SVG Version: 6.00 Build 0)  -->
<!DOCTYPE svg PUBLIC "-//W3C//DTD SVG 1.1//EN" "http://www.w3.org/Graphics/SVG/1.1/DTD/svg11.dtd">
<svg version="1.1" id="Layer_1" xmlns="http://www.w3.org/2000/svg" xmlns:xlink="http://www.w3.org/1999/xlink" x="0px" y="0px"
	 width="795px" height="230.872px" viewBox="0 0 795 230.872" enable-background="new 0 0 795 230.872" xml:space="preserve">
<g>
	<linearGradient id="SVGID_1_" gradientUnits="userSpaceOnUse" x1="725.9849" y1="-28.2134" x2="725.9849" y2="317.1588">
		<stop  offset="0" style="stop-color:#2DA9E1"/>
		<stop  offset="1" style="stop-color:#2F398F"/>
	</linearGradient>
	<path fill="url(#SVGID_1_)" d="M749.823,19.655l-4.883-6.967c-15.195,2.253-29.437,5.151-42.794,8.593l12.355,13.114
		C727.247,28.297,739.291,23.441,749.823,19.655z"/>
	<linearGradient id="SVGID_2_" gradientUnits="userSpaceOnUse" x1="629.8833" y1="-28.2158" x2="629.8833" y2="317.1649">
		<stop  offset="0" style="stop-color:#2DA9E1"/>
		<stop  offset="1" style="stop-color:#2F398F"/>
	</linearGradient>
	<path fill="url(#SVGID_2_)" d="M663.977,64.259L636.8,45.346C621.455,53,607.844,61.462,595.79,70.41l37.989,19.569
		C643.337,80.422,653.533,71.867,663.977,64.259z"/>
	<linearGradient id="SVGID_3_" gradientUnits="userSpaceOnUse" x1="676.6849" y1="-28.2168" x2="676.6849" y2="317.1705">
		<stop  offset="0" style="stop-color:#2DA9E1"/>
		<stop  offset="1" style="stop-color:#2F398F"/>
	</linearGradient>
	<path fill="url(#SVGID_3_)" d="M705.826,38.699l-14.589-14.425c-15.853,4.605-30.38,9.991-43.692,15.982l24.539,18.334
		C683.358,50.954,694.765,44.364,705.826,38.699z"/>
	<linearGradient id="SVGID_4_" gradientUnits="userSpaceOnUse" x1="589.4584" y1="-28.2136" x2="589.4584" y2="317.1602">
		<stop  offset="0" style="stop-color:#2DA9E1"/>
		<stop  offset="1" style="stop-color:#2F398F"/>
	</linearGradient>
	<path fill="url(#SVGID_4_)" d="M563.901,98.532c-4.261,4.466-8.194,8.971-11.889,13.472l51.05,16.68
		c1.641-2.684,3.324-5.332,5.075-7.905c5.747-8.454,12.067-16.305,18.768-23.622l-40.661-19.308
		C578.024,84.577,570.596,91.51,563.901,98.532z"/>
	<linearGradient id="SVGID_5_" gradientUnits="userSpaceOnUse" x1="559.0348" y1="-28.2263" x2="559.0348" y2="317.1777">
		<stop  offset="0" style="stop-color:#2DA9E1"/>
		<stop  offset="1" style="stop-color:#2F398F"/>
	</linearGradient>
	<path fill="url(#SVGID_5_)" d="M544.571,121.541c-10.685,14.454-18.677,28.644-24.637,41.512l63.25,10.22
		c3.845-12.952,8.912-24.957,14.952-36.073L544.571,121.541z"/>
	<linearGradient id="SVGID_6_" gradientUnits="userSpaceOnUse" x1="541.8192" y1="-28.2388" x2="541.8192" y2="317.1916">
		<stop  offset="0" style="stop-color:#2DA9E1"/>
		<stop  offset="1" style="stop-color:#2F398F"/>
	</linearGradient>
	<path fill="url(#SVGID_6_)" d="M502.999,217.122h72.493c0.761-12.142,2.527-23.612,5.147-34.455l-65.513-8.522
		C504.998,199.339,502.999,217.122,502.999,217.122z"/>
	<linearGradient id="SVGID_7_" gradientUnits="userSpaceOnUse" x1="771.9037" y1="-28.2126" x2="771.9037" y2="317.152">
		<stop  offset="0" style="stop-color:#2DA9E1"/>
		<stop  offset="1" style="stop-color:#2F398F"/>
	</linearGradient>
	<path fill="url(#SVGID_7_)" d="M788.475,8.222c-11.505,0.685-22.542,1.717-33.142,3.048l3.428,5.299
		C776.716,10.622,788.475,8.222,788.475,8.222z"/>
	<linearGradient id="SVGID_8_" gradientUnits="userSpaceOnUse" x1="630.326" y1="-28.2669" x2="630.326" y2="317.2025">
		<stop  offset="0" style="stop-color:#C0D241"/>
		<stop  offset="1" style="stop-color:#079247"/>
	</linearGradient>
	<path fill="url(#SVGID_8_)" d="M665.131,192.77l-65.686-8.55c-3.591,14.236-4.834,26.001-5.232,32.901h72.226
		C665.351,208.669,664.948,200.555,665.131,192.77z"/>
	<linearGradient id="SVGID_9_" gradientUnits="userSpaceOnUse" x1="653.4589" y1="-28.216" x2="653.4589" y2="317.1648">
		<stop  offset="0" style="stop-color:#C0D241"/>
		<stop  offset="1" style="stop-color:#079247"/>
	</linearGradient>
	<path fill="url(#SVGID_9_)" d="M645.092,102.527c-8.135,8.138-14.998,16.631-20.748,25.199c-1.046,1.561-2.006,3.127-2.985,4.69
		l51.524,16.834c3.389-9.911,7.702-19.087,12.676-27.51L645.092,102.527z"/>
	<linearGradient id="SVGID_10_" gradientUnits="userSpaceOnUse" x1="636.2976" y1="-28.2174" x2="636.2976" y2="317.1701">
		<stop  offset="0" style="stop-color:#C0D241"/>
		<stop  offset="1" style="stop-color:#079247"/>
	</linearGradient>
	<path fill="url(#SVGID_10_)" d="M601.949,175.197l63.545,10.267c0.145-2.063,0.324-4.109,0.554-6.124
		c0.919-8.048,2.527-15.67,4.598-22.949l-54.103-15.813C609.931,152.581,605.25,164.394,601.949,175.197z"/>
	<linearGradient id="SVGID_11_" gradientUnits="userSpaceOnUse" x1="680.5698" y1="-28.2219" x2="680.5698" y2="317.1752">
		<stop  offset="0" style="stop-color:#C0D241"/>
		<stop  offset="1" style="stop-color:#079247"/>
	</linearGradient>
	<path fill="url(#SVGID_11_)" d="M652.109,95.885l37.51,19.325c5.947-9.047,12.567-17.163,19.413-24.381l-25.176-17.518
		C671.715,80.147,661.191,87.772,652.109,95.885z"/>
	<linearGradient id="SVGID_12_" gradientUnits="userSpaceOnUse" x1="715.7752" y1="-28.2226" x2="715.7752" y2="317.1838">
		<stop  offset="0" style="stop-color:#C0D241"/>
		<stop  offset="1" style="stop-color:#079247"/>
	</linearGradient>
	<path fill="url(#SVGID_12_)" d="M739.056,64.763l-10.325-10.206c-13.349,3.974-25.404,8.744-36.236,14.154l22.082,16.497
		C722.879,77.125,731.307,70.323,739.056,64.763z"/>
	<linearGradient id="SVGID_13_" gradientUnits="userSpaceOnUse" x1="754.8707" y1="-28.2177" x2="754.8707" y2="317.17">
		<stop  offset="0" style="stop-color:#C0D241"/>
		<stop  offset="1" style="stop-color:#079247"/>
	</linearGradient>
	<path fill="url(#SVGID_13_)" d="M745.676,60.185c15.013-9.995,26.102-14.79,26.102-14.79c-12.091,1.651-23.314,3.9-33.815,6.606
		L745.676,60.185z"/>
</g>
<g>
	<path fill="#3180C3" d="M7.809,104.639l16.641-87.623h11.83l20.151,49.662c3.77,9.88,5.85,16.901,7.67,24.441l0.26-0.13
		c0.521-7.931,1.431-15.211,3.641-27.431l8.84-46.542h10.271l-16.771,87.623h-10.66L39.79,55.107
		c-4.29-10.791-6.24-17.031-8.19-25.221l-0.39,0.13c-0.91,8.19-2.341,16.901-4.551,28.861l-8.71,45.762H7.809z"/>
	<path fill="#3180C3" d="M134.949,100.998c-4.681,2.73-12.351,4.94-20.801,4.94c-16.641,0-23.921-11.311-23.921-25.221
		c0-18.98,14.04-40.432,34.321-40.432c11.96,0,18.461,7.15,18.461,16.121c0,16.511-18.591,20.931-41.862,20.541
		c-0.52,2.73-0.13,8.581,1.301,11.96c2.47,5.59,7.54,8.45,14.04,8.45c7.41,0,13.001-2.34,16.9-4.42L134.949,100.998z
		 M122.988,48.736c-10.271,0-17.94,10.011-20.54,19.891c16.9,0.13,30.161-2.08,30.161-11.831
		C132.609,51.597,128.709,48.736,122.988,48.736z"/>
	<path fill="#3180C3" d="M164.716,41.716l6.11,13.781c1.69,4.03,2.99,7.15,4.16,10.01h0.391c2.47-3.51,3.77-5.59,6.89-9.491
		l11.57-14.3h12.48l-26.521,30.681l14.82,32.241h-11.7l-6.37-14.171c-2.08-4.68-2.99-7.149-4.551-11.18h-0.26
		c-1.95,2.99-3.771,5.85-6.5,9.621l-12.74,15.73h-12.48l27.561-32.371l-14.561-30.551H164.716z"/>
	<path fill="#70B143" d="M270.667,100.868c-5.07,2.08-14.431,4.681-24.701,4.681c-12.351,0-21.971-3.51-28.601-10.921
		c-6.631-7.41-8.841-16.9-8.841-25.61c0-14.561,5.851-29.771,17.161-39.912c9.36-8.19,21.971-13,36.011-13
		c10.791,0,18.071,2.47,20.671,4.03l-3.51,9.1c-4.551-2.21-10.53-3.77-18.461-3.77c-10.4,0-19.891,3.77-27.171,10.66
		c-8.19,7.67-13.131,20.151-13.131,32.111c0,16.9,8.45,28.081,27.951,28.081c5.2,0,10.141-1.04,13.391-2.47l4.94-26.131h-17.811
		l1.689-8.84h28.342L270.667,100.868z"/>
	<path fill="#70B143" d="M332.154,100.998c-4.68,2.73-12.351,4.94-20.801,4.94c-16.641,0-23.921-11.311-23.921-25.221
		c0-18.98,14.041-40.432,34.321-40.432c11.961,0,18.461,7.15,18.461,16.121c0,16.511-18.591,20.931-41.861,20.541
		c-0.521,2.73-0.131,8.581,1.3,11.96c2.47,5.59,7.54,8.45,14.04,8.45c7.41,0,13.001-2.34,16.901-4.42L332.154,100.998z
		 M320.194,48.736c-10.271,0-17.941,10.011-20.541,19.891c16.9,0.13,30.161-2.08,30.161-11.831
		C329.814,51.597,325.914,48.736,320.194,48.736z"/>
	<path fill="#70B143" d="M345.672,104.639l8.45-44.592c1.43-7.02,2.21-13.13,2.989-18.331h9.621l-1.561,12.351h0.26
		c5.591-8.84,14.041-13.781,23.271-13.781c7.54,0,15.99,4.29,15.99,17.551c0,2.73-0.52,6.76-1.17,10.141l-7.021,36.661h-10.79
		l6.891-36.271c0.52-2.47,0.91-5.46,0.91-8.06c0-6.371-2.471-11.05-9.881-11.05c-7.67,0-18.591,9.23-21.451,24.831l-5.72,30.551
		H345.672z"/>
</g>
<g>
	<path fill="#4C4E4E" d="M149.268,148.702c-0.404,0.624-0.88,0.935-1.43,0.935c-0.44,0-0.972-0.348-1.595-1.045
		c-0.624-0.696-1.477-1.457-2.558-2.282c-1.082-0.825-2.475-1.586-4.18-2.282c-1.705-0.696-3.842-1.045-6.408-1.045
		c-2.787,0-5.271,0.449-7.453,1.347c-2.182,0.899-4.034,2.127-5.555,3.686c-1.522,1.559-2.687,3.374-3.493,5.445
		c-0.807,2.071-1.21,4.281-1.21,6.627c0,2.237,0.458,4.116,1.375,5.638c0.916,1.521,2.118,2.824,3.603,3.905
		c1.485,1.082,3.171,2.017,5.06,2.805c1.888,0.789,3.831,1.559,5.83,2.31c1.998,0.752,3.941,1.577,5.83,2.476
		c1.888,0.898,3.575,1.989,5.06,3.272c1.485,1.284,2.686,2.842,3.603,4.675c0.916,1.834,1.375,4.089,1.375,6.765
		c0,3.521-0.605,6.867-1.815,10.038c-1.21,3.172-2.942,5.939-5.197,8.305c-2.255,2.365-4.997,4.244-8.223,5.638
		c-3.227,1.393-6.839,2.09-10.835,2.09c-4.694,0-8.654-0.907-11.88-2.723c-3.227-1.814-5.94-4.298-8.14-7.452l1.815-2.365
		c0.513-0.513,1.026-0.77,1.54-0.77c0.33,0,0.706,0.22,1.127,0.66c0.421,0.439,0.935,0.98,1.54,1.622s1.32,1.339,2.145,2.09
		c0.825,0.752,1.824,1.449,2.998,2.09c1.173,0.643,2.539,1.183,4.098,1.623c1.558,0.439,3.363,0.66,5.417,0.66
		c3.08,0,5.866-0.522,8.36-1.568c2.493-1.045,4.62-2.483,6.38-4.317c1.76-1.833,3.107-3.987,4.042-6.462
		c0.935-2.476,1.402-5.143,1.402-8.003c0-2.272-0.458-4.17-1.375-5.692c-0.917-1.521-2.117-2.813-3.602-3.878
		c-1.485-1.062-3.172-1.961-5.06-2.694c-1.889-0.733-3.823-1.466-5.803-2.2c-1.98-0.733-3.924-1.54-5.83-2.42
		c-1.907-0.88-3.603-1.971-5.087-3.272c-1.485-1.301-2.677-2.896-3.575-4.785c-0.899-1.888-1.348-4.207-1.348-6.957
		c0-2.971,0.531-5.83,1.595-8.58s2.594-5.179,4.593-7.288c1.998-2.107,4.445-3.785,7.342-5.032c2.896-1.246,6.196-1.87,9.9-1.87
		c3.74,0,7.021,0.688,9.845,2.062c2.823,1.375,5.261,3.383,7.315,6.022L149.268,148.702z"/>
	<path fill="#4C4E4E" d="M175.227,217.837c-2.934,0-5.602-0.514-8.002-1.54c-2.402-1.026-4.455-2.511-6.16-4.455
		c-1.705-1.942-3.025-4.298-3.96-7.067c-0.935-2.768-1.403-5.912-1.403-9.433c0-4.436,0.66-8.698,1.98-12.787
		c1.32-4.088,3.181-7.69,5.583-10.808c2.401-3.116,5.253-5.601,8.553-7.452s6.93-2.778,10.89-2.778c2.933,0,5.601,0.523,8.002,1.568
		c2.4,1.045,4.455,2.529,6.16,4.455c1.705,1.925,3.025,4.281,3.959,7.067c0.936,2.786,1.402,5.903,1.402,9.35
		c0,4.437-0.668,8.69-2.006,12.76c-1.34,4.07-3.199,7.673-5.584,10.808c-2.383,3.135-5.224,5.638-8.524,7.508
		C182.817,216.902,179.187,217.837,175.227,217.837z M175.667,213.712c3.19,0,6.095-0.833,8.717-2.502
		c2.621-1.668,4.868-3.887,6.737-6.655c1.871-2.769,3.309-5.94,4.318-9.515c1.008-3.575,1.512-7.251,1.512-11.028
		c0-5.866-1.301-10.395-3.904-13.585c-2.604-3.189-6.215-4.785-10.835-4.785c-2.127,0-4.125,0.377-5.995,1.128
		c-1.87,0.752-3.594,1.807-5.17,3.162c-1.577,1.357-2.998,2.962-4.263,4.812c-1.265,1.853-2.329,3.878-3.19,6.078
		c-0.862,2.2-1.522,4.528-1.98,6.984c-0.459,2.457-0.688,4.97-0.688,7.535c0,5.83,1.292,10.35,3.877,13.558
		C167.389,212.108,171.01,213.712,175.667,213.712z"/>
	<path fill="#4C4E4E" d="M222.965,167.952l-5.83,48.015l-2.31,12.65c-0.147,0.806-0.459,1.384-0.936,1.732
		c-0.477,0.348-1.063,0.522-1.76,0.522h-1.925l7.699-62.865l-6.93-0.439c-0.807-0.073-1.21-0.477-1.21-1.21
		c0-0.036,0.009-0.156,0.027-0.357s0.083-0.834,0.192-1.897h8.36l0.88-6.931c0.366-3.116,1.081-5.857,2.146-8.223
		c1.062-2.364,2.393-4.335,3.987-5.912c1.595-1.576,3.4-2.759,5.417-3.548c2.017-0.788,4.181-1.183,6.49-1.183
		c1.026,0,2.053,0.102,3.08,0.303c1.026,0.202,1.943,0.486,2.75,0.853l-0.55,2.641c-0.037,0.403-0.312,0.604-0.825,0.604
		c-0.404,0-0.972-0.073-1.705-0.22s-1.577-0.221-2.53-0.221c-1.649,0-3.217,0.275-4.702,0.825s-2.805,1.422-3.96,2.612
		c-1.155,1.192-2.145,2.742-2.97,4.648s-1.402,4.234-1.732,6.984l-0.88,6.766h15.51l-0.55,3.85H222.965z"/>
	<path fill="#4C4E4E" d="M247,207.938c0-0.221,0.009-0.495,0.027-0.825s0.055-0.825,0.11-1.485c0.055-0.66,0.146-1.513,0.274-2.558
		s0.284-2.373,0.468-3.987l3.74-31.075h-7.205c-0.734,0-1.1-0.348-1.1-1.045l0.274-2.255l8.635-0.66l3.631-19.58
		c0.072-0.33,0.237-0.623,0.494-0.88c0.257-0.256,0.568-0.385,0.936-0.385h2.53l-2.585,20.9h15.84l-0.44,3.904h-15.84l-3.795,30.873
		c-0.184,1.502-0.33,2.729-0.44,3.681c-0.109,0.952-0.201,1.731-0.274,2.335c-0.074,0.604-0.12,1.053-0.138,1.346
		c-0.019,0.293-0.027,0.513-0.027,0.658c0,2.381,0.559,4.103,1.678,5.164c1.117,1.062,2.557,1.594,4.317,1.594
		c1.21,0,2.282-0.192,3.217-0.578c0.936-0.385,1.751-0.806,2.448-1.265c0.695-0.458,1.265-0.88,1.705-1.265
		c0.439-0.385,0.77-0.578,0.989-0.578c0.221,0,0.386,0.047,0.495,0.138c0.11,0.092,0.22,0.229,0.33,0.413l0.99,2.31
		c-1.467,1.553-3.245,2.803-5.335,3.749c-2.09,0.947-4.181,1.421-6.271,1.421c-3.007,0-5.362-0.825-7.067-2.475
		C247.908,213.877,247.037,211.347,247,207.938z"/>
	<path fill="#4C4E4E" d="M278.295,162.397h3.685c0.916,0,1.466,0.439,1.65,1.319L291,206.892c0.146,0.808,0.229,1.587,0.248,2.338
		c0.018,0.752,0.027,1.494,0.027,2.228c0.293-0.733,0.586-1.476,0.88-2.228c0.293-0.751,0.605-1.53,0.936-2.338l18.81-43.56
		c0.293-0.806,0.843-1.21,1.65-1.21h1.979c0.807,0,1.266,0.404,1.375,1.21l8.085,43.56c0.184,0.845,0.303,1.65,0.357,2.421
		c0.056,0.77,0.119,1.54,0.192,2.31c0.221-0.77,0.458-1.54,0.716-2.31c0.256-0.771,0.567-1.576,0.935-2.421l17.93-43.175
		c0.184-0.402,0.431-0.724,0.743-0.962c0.311-0.238,0.668-0.357,1.072-0.357h3.63l-23.43,54.725h-3.74
		c-0.55,0-0.899-0.385-1.045-1.155l-8.415-44.439c-0.184-0.916-0.275-1.761-0.275-2.53c-0.257,0.807-0.587,1.65-0.989,2.53
		l-19.36,44.439c-0.294,0.771-0.734,1.155-1.32,1.155h-3.63L278.295,162.397z"/>
	<path fill="#4C4E4E" d="M390.658,217.122h-2.53c-0.696,0-1.182-0.165-1.457-0.495s-0.412-0.733-0.412-1.21l1.814-17.215
		c-1.394,2.934-2.925,5.602-4.593,8.002c-1.669,2.402-3.446,4.465-5.335,6.188c-1.889,1.725-3.877,3.062-5.967,4.016
		c-2.091,0.953-4.254,1.43-6.49,1.43c-2.311,0-4.327-0.449-6.05-1.348c-1.725-0.897-3.163-2.172-4.317-3.822
		c-1.155-1.65-2.027-3.648-2.613-5.995c-0.587-2.346-0.88-4.986-0.88-7.92c0-3.189,0.403-6.315,1.21-9.377s1.953-5.968,3.438-8.718
		c1.485-2.75,3.254-5.28,5.308-7.59c2.053-2.311,4.317-4.309,6.793-5.995c2.475-1.687,5.123-3.006,7.947-3.96
		c2.823-0.953,5.738-1.431,8.745-1.431c2.2,0,4.253,0.193,6.16,0.578c1.905,0.385,3.795,1.055,5.665,2.007L390.658,217.122z
		 M367.393,213.492c2.09,0,4.152-0.586,6.188-1.76s3.969-2.833,5.803-4.978c1.833-2.146,3.565-4.73,5.197-7.755
		c1.631-3.025,3.088-6.371,4.372-10.038l2.75-22.274c-2.164-0.733-4.51-1.101-7.04-1.101c-2.457,0-4.84,0.413-7.149,1.237
		c-2.311,0.825-4.482,1.972-6.518,3.438c-2.035,1.468-3.905,3.209-5.61,5.226s-3.182,4.227-4.428,6.627
		c-1.247,2.402-2.209,4.941-2.887,7.618c-0.68,2.677-1.018,5.408-1.018,8.194c0,4.914,0.833,8.736,2.502,11.468
		C361.223,212.127,363.835,213.492,367.393,213.492z"/>
	<path fill="#4C4E4E" d="M407.597,217.122l6.6-54.89h2.365c1.283,0,1.925,0.659,1.925,1.979l-1.595,16.28
		c2.493-5.977,5.344-10.588,8.553-13.833c3.208-3.244,6.627-4.867,10.258-4.867c1.503,0,3.043,0.312,4.619,0.936l-0.935,4.895
		c-1.687-0.623-3.264-0.935-4.729-0.935c-3.925,0-7.453,1.934-10.588,5.802c-3.135,3.869-5.821,9.452-8.058,16.748l-3.3,27.885
		H407.597z"/>
	<path fill="#4C4E4E" d="M485.477,172.847c0,1.504-0.202,2.935-0.604,4.29c-0.404,1.357-1.119,2.641-2.146,3.851
		s-2.42,2.356-4.18,3.438c-1.76,1.082-4.016,2.071-6.766,2.97c-2.75,0.899-6.031,1.705-9.845,2.42s-8.287,1.348-13.42,1.897
		c-0.074,0.771-0.129,1.531-0.165,2.282c-0.037,0.752-0.055,1.495-0.055,2.228c0,5.464,1.237,9.735,3.712,12.815
		c2.476,3.08,6.206,4.62,11.193,4.62c1.942,0,3.693-0.211,5.252-0.633c1.559-0.421,2.951-0.962,4.18-1.622s2.311-1.356,3.245-2.09
		c0.936-0.733,1.769-1.431,2.503-2.091c0.733-0.659,1.365-1.2,1.897-1.622c0.531-0.421,1.018-0.633,1.457-0.633
		c0.44,0,0.825,0.185,1.155,0.55l1.21,1.431c-1.797,1.907-3.547,3.547-5.252,4.922s-3.43,2.503-5.17,3.383
		c-1.742,0.88-3.548,1.531-5.418,1.952c-1.87,0.422-3.869,0.633-5.995,0.633c-3.044,0-5.747-0.504-8.112-1.513
		c-2.365-1.008-4.354-2.438-5.968-4.29c-1.613-1.851-2.842-4.105-3.685-6.765c-0.844-2.658-1.266-5.638-1.266-8.938
		c0-2.75,0.275-5.518,0.825-8.305c0.55-2.786,1.366-5.463,2.447-8.03c1.081-2.566,2.421-4.968,4.016-7.205
		c1.595-2.236,3.418-4.18,5.473-5.83c2.053-1.649,4.326-2.951,6.819-3.905c2.493-0.952,5.188-1.43,8.085-1.43
		c2.677,0,4.94,0.377,6.793,1.128c1.851,0.752,3.354,1.687,4.51,2.805c1.155,1.119,1.988,2.329,2.503,3.63
		C485.22,170.491,485.477,171.711,485.477,172.847z M470.627,165.478c-2.935,0-5.583,0.623-7.947,1.869
		c-2.365,1.247-4.455,2.907-6.271,4.978c-1.815,2.072-3.337,4.475-4.565,7.205c-1.229,2.732-2.136,5.583-2.722,8.553
		c4.655-0.513,8.671-1.108,12.045-1.787c3.373-0.679,6.232-1.394,8.58-2.146c2.346-0.751,4.243-1.567,5.692-2.447
		c1.448-0.88,2.575-1.787,3.382-2.723c0.807-0.935,1.348-1.897,1.623-2.888c0.274-0.989,0.412-2.016,0.412-3.08
		c0-0.77-0.174-1.604-0.522-2.502s-0.926-1.714-1.732-2.447s-1.861-1.348-3.162-1.843
		C474.138,165.725,472.534,165.478,470.627,165.478z"/>
</g>
</svg>
